<?xml version="1.0" encoding="UTF-8" standalone="no"?>
<!DOCTYPE svg PUBLIC "-//W3C//DTD SVG 1.1//EN" "http://www.w3.org/Graphics/SVG/1.1/DTD/svg11.dtd">
<svg width="100%" height="100%" viewBox="0 0 64 64" version="1.1" xmlns="http://www.w3.org/2000/svg" xmlns:xlink="http://www.w3.org/1999/xlink" xml:space="preserve" xmlns:serif="http://www.serif.com/" style="fill-rule:evenodd;clip-rule:evenodd;stroke-linejoin:round;stroke-miterlimit:2;">
    <g transform="matrix(2.08464,0,0,2.08464,-9.67712,5.5)">
        <g>
            <g transform="matrix(0.479699,0,0,0.479699,4.64211,-2.63834)">
                <path d="M32,0.5C49.385,0.5 63.5,14.615 63.5,32C63.5,49.385 49.385,63.5 32,63.5C14.615,63.5 0.5,49.385 0.5,32C0.5,14.615 14.615,0.5 32,0.5ZM32,3.5C16.27,3.5 3.5,16.27 3.5,32C3.5,47.73 16.27,60.5 32,60.5C47.73,60.5 60.5,47.73 60.5,32C60.5,16.27 47.73,3.5 32,3.5Z" style="fill:rgb(165,42,42);"/>
            </g>
            <g transform="matrix(0.46012,0,0,0.46012,5.12599,-1.56147)">
                <path d="M37.523,6L37.523,10C37.523,10.576 37.056,11.043 36.48,11.043C36.48,11.043 35.438,11.043 35.438,11.043C35.438,11.043 35.438,16.673 35.437,16.672C36.381,18.048 40.443,24.189 41.034,28.869C41.683,34.005 41.042,55.032 41.042,55.032C41.025,55.595 40.563,56.043 40,56.043L25,56.043C24.437,56.043 23.975,55.595 23.958,55.032C23.958,55.032 23.317,34.005 23.966,28.869C24.557,24.187 28.325,18.042 29.182,16.694L29.182,11.043L28.14,11.043C27.564,11.043 27.097,10.576 27.097,10L27.097,6C27.097,5.424 27.564,4.957 28.14,4.957L36.48,4.957C37.056,4.957 37.523,5.424 37.523,6Z" style="fill:rgb(165,42,42);"/>
            </g>
        </g>
    </g>
</svg>
