<?xml version="1.0" encoding="UTF-8" standalone="no"?>
<!DOCTYPE svg PUBLIC "-//W3C//DTD SVG 1.1//EN" "http://www.w3.org/Graphics/SVG/1.1/DTD/svg11.dtd">
<svg width="100%" height="100%" viewBox="0 0 64 64" version="1.1" xmlns="http://www.w3.org/2000/svg" xmlns:xlink="http://www.w3.org/1999/xlink" xml:space="preserve" xmlns:serif="http://www.serif.com/" style="fill-rule:evenodd;clip-rule:evenodd;stroke-linejoin:round;stroke-miterlimit:2;">
    <g>
        <g>
            <path d="M32,0.5C49.385,0.5 63.5,14.615 63.5,32C63.5,49.385 49.385,63.5 32,63.5C14.615,63.5 0.5,49.385 0.5,32C0.5,14.615 14.615,0.5 32,0.5ZM32,3.5C16.27,3.5 3.5,16.27 3.5,32C3.5,47.73 16.27,60.5 32,60.5C47.73,60.5 60.5,47.73 60.5,32C60.5,16.27 47.73,3.5 32,3.5ZM50.866,18.843L49.524,21.168C49.248,21.646 48.636,21.81 48.158,21.534C48.158,21.534 47.812,21.334 47.812,21.334C47.812,21.334 46.119,24.266 46.119,24.265C46.213,25.563 46.464,30.39 45.25,33.278C43.9,36.489 36.455,48.526 36.455,48.526C36.171,48.986 35.573,49.136 35.105,48.866L26.388,43.833C25.92,43.563 25.751,42.97 26.007,42.494C26.007,42.494 32.709,30.027 34.815,27.253C36.709,24.757 40.853,22.466 41.954,21.884C41.954,21.884 43.657,18.935 43.657,18.935L43.311,18.735C42.833,18.459 42.669,17.848 42.945,17.369L44.287,15.045C44.563,14.566 45.175,14.402 45.653,14.679L50.5,17.477C50.978,17.753 51.142,18.365 50.866,18.843ZM23.127,38.289C23.952,38.349 24.574,39.068 24.514,39.894C24.454,40.72 23.735,41.341 22.909,41.281C18.813,40.984 15.268,42.094 12.999,44.119C12.381,44.67 11.432,44.616 10.881,43.999C10.33,43.381 10.384,42.432 11.001,41.881C13.785,39.397 18.102,37.925 23.127,38.289ZM9.323,35.706C8.934,36.437 8.024,36.713 7.294,36.323C6.563,35.934 6.287,35.024 6.677,34.294C8.141,31.549 17.269,20.971 29.591,20.656C30.418,20.635 31.107,21.29 31.129,22.117C31.15,22.945 30.495,23.634 29.667,23.655C18.741,23.935 10.622,33.272 9.323,35.706ZM26.936,29.471C27.764,29.498 28.414,30.192 28.387,31.019C28.36,31.847 27.667,32.497 26.839,32.47C20.274,32.257 14.44,35.899 11.166,39.944C10.645,40.587 9.7,40.687 9.056,40.166C8.413,39.645 8.313,38.7 8.834,38.056C12.612,33.389 19.362,29.226 26.936,29.471Z" style="fill:rgb(165,42,42);"/>
        </g>
    </g>
</svg>
