<?xml version="1.0" encoding="UTF-8" standalone="no"?>
<!DOCTYPE svg PUBLIC "-//W3C//DTD SVG 1.1//EN" "http://www.w3.org/Graphics/SVG/1.1/DTD/svg11.dtd">
<svg width="100%" height="100%" viewBox="0 0 64 64" version="1.1" xmlns="http://www.w3.org/2000/svg" xmlns:xlink="http://www.w3.org/1999/xlink" xml:space="preserve" xmlns:serif="http://www.serif.com/" style="fill-rule:evenodd;clip-rule:evenodd;stroke-linejoin:round;stroke-miterlimit:2;">
    <g>
        <g>
            <path d="M32,0.5C49.385,0.5 63.5,14.615 63.5,32C63.5,49.385 49.385,63.5 32,63.5C14.615,63.5 0.5,49.385 0.5,32C0.5,14.615 14.615,0.5 32,0.5ZM32,3.5C16.27,3.5 3.5,16.27 3.5,32C3.5,47.73 16.27,60.5 32,60.5C47.73,60.5 60.5,47.73 60.5,32C60.5,16.27 47.73,3.5 32,3.5ZM18.502,32.072C18.483,31.664 18.628,31.25 18.939,30.939C19.075,30.804 19.23,30.7 19.395,30.627L37.083,12.939C37.668,12.354 38.619,12.354 39.204,12.939C39.79,13.525 39.79,14.475 39.204,15.061L22.193,32.072L39.204,49.083C39.79,49.668 39.79,50.619 39.204,51.204C38.619,51.79 37.668,51.79 37.083,51.204L19.395,33.517C19.23,33.444 19.075,33.34 18.939,33.204C18.628,32.893 18.483,32.479 18.502,32.072Z" style="fill:rgb(165,42,42);"/>
        </g>
    </g>
</svg>
