<?xml version="1.0" encoding="UTF-8" standalone="no"?>
<!DOCTYPE svg PUBLIC "-//W3C//DTD SVG 1.1//EN" "http://www.w3.org/Graphics/SVG/1.1/DTD/svg11.dtd">
<svg width="100%" height="100%" viewBox="0 0 64 64" version="1.1" xmlns="http://www.w3.org/2000/svg" xmlns:xlink="http://www.w3.org/1999/xlink" xml:space="preserve" xmlns:serif="http://www.serif.com/" style="fill-rule:evenodd;clip-rule:evenodd;stroke-linejoin:round;stroke-miterlimit:2;">
    <g>
        <g>
            <path d="M32,0.5C49.385,0.5 63.5,14.615 63.5,32C63.5,49.385 49.385,63.5 32,63.5C14.615,63.5 0.5,49.385 0.5,32C0.5,14.615 14.615,0.5 32,0.5ZM32,3.5C16.27,3.5 3.5,16.27 3.5,32C3.5,47.73 16.27,60.5 32,60.5C47.73,60.5 60.5,47.73 60.5,32C60.5,16.27 47.73,3.5 32,3.5ZM32.072,24.193L15.061,41.204C14.475,41.79 13.525,41.79 12.939,41.204C12.354,40.619 12.354,39.668 12.939,39.083L30.627,21.395C30.7,21.23 30.804,21.075 30.939,20.939C31.25,20.628 31.664,20.483 32.072,20.502C32.479,20.483 32.893,20.628 33.204,20.939C33.34,21.075 33.444,21.23 33.517,21.395L51.204,39.083C51.79,39.668 51.79,40.619 51.204,41.204C50.619,41.79 49.668,41.79 49.083,41.204L32.072,24.193Z" style="fill:rgb(165,42,42);"/>
        </g>
    </g>
</svg>
