<?xml version="1.0" encoding="UTF-8" standalone="no"?>
<!DOCTYPE svg PUBLIC "-//W3C//DTD SVG 1.1//EN" "http://www.w3.org/Graphics/SVG/1.1/DTD/svg11.dtd">
<svg width="100%" height="100%" viewBox="0 0 64 64" version="1.1" xmlns="http://www.w3.org/2000/svg" xmlns:xlink="http://www.w3.org/1999/xlink" xml:space="preserve" xmlns:serif="http://www.serif.com/" style="fill-rule:evenodd;clip-rule:evenodd;stroke-linejoin:round;stroke-miterlimit:2;">
    <g>
        <g>
            <path d="M32,0.5C49.385,0.5 63.5,14.615 63.5,32C63.5,49.385 49.385,63.5 32,63.5C14.615,63.5 0.5,49.385 0.5,32C0.5,14.615 14.615,0.5 32,0.5ZM32,3.5C16.27,3.5 3.5,16.27 3.5,32C3.5,47.73 16.27,60.5 32,60.5C47.73,60.5 60.5,47.73 60.5,32C60.5,16.27 47.73,3.5 32,3.5ZM39.951,32.072L22.939,15.061C22.354,14.475 22.354,13.525 22.939,12.939C23.525,12.354 24.475,12.354 25.061,12.939L42.748,30.627C42.914,30.7 43.069,30.804 43.204,30.939C43.515,31.25 43.661,31.664 43.642,32.072C43.661,32.479 43.515,32.893 43.204,33.204C43.069,33.34 42.914,33.444 42.748,33.517L25.061,51.204C24.475,51.79 23.525,51.79 22.939,51.204C22.354,50.619 22.354,49.668 22.939,49.083L39.951,32.072Z" style="fill:rgb(165,42,42);"/>
        </g>
    </g>
</svg>
